<?xml version="1.0" standalone="no"?><!DOCTYPE svg PUBLIC "-//W3C//DTD SVG 1.1//EN" "http://www.w3.org/Graphics/SVG/1.1/DTD/svg11.dtd"><svg t="1529067959528" class="icon" style="" viewBox="0 0 1024 1024" version="1.1" xmlns="http://www.w3.org/2000/svg" p-id="949" xmlns:xlink="http://www.w3.org/1999/xlink" width="200" height="200"><defs><style type="text/css"></style></defs><path d="M934.976 191.296c-165.312-11.776-315.904-75.136-402.88-169.472l-20.096-21.824-20.096 21.824c-86.912 94.336-237.504 157.696-402.88 169.472l-25.024 1.664 0 341.888c2.368 291.52 418.112 476.608 435.84 484.352l11.072 4.8 11.072-4.8c17.152-7.488 412.416-181.888 438.016-458.432l0-367.808-25.024-1.664zM737.024 721.408l-450.048 0c-17.088 0-31.04-17.344-31.04-38.528s14.016-38.528 31.04-38.528l449.984 0c17.088 0 31.04 17.344 31.04 38.528s-13.888 38.528-30.976 38.528zM737.024 530.496l-450.048 0c-17.088 0-31.04-17.344-31.04-38.528s14.016-38.528 31.04-38.528l449.984 0c17.088 0 31.04 17.344 31.04 38.528s-13.888 38.528-30.976 38.528zM737.024 339.648l-450.048 0c-17.088 0-31.04-17.344-31.04-38.528s14.016-38.528 31.04-38.528l449.984 0c17.088 0 31.04 17.344 31.04 38.528s-13.888 38.528-30.976 38.528z" p-id="950" fill="#1296db"></path></svg>